<?xml version="1.0" encoding="UTF-8"?>
<svg version="1.1" xmlns="http://www.w3.org/2000/svg" width="500" height="500">
<path d="M0 0 C1.84453966 1.43369092 3.75486111 2.74094472 5.68359375 4.05859375 C6.67359375 4.80109375 7.66359375 5.54359375 8.68359375 6.30859375 C8.68359375 6.96859375 8.68359375 7.62859375 8.68359375 8.30859375 C9.34359375 8.30859375 10.00359375 8.30859375 10.68359375 8.30859375 C10.68359375 8.96859375 10.68359375 9.62859375 10.68359375 10.30859375 C11.2146875 10.51484375 11.74578125 10.72109375 12.29296875 10.93359375 C15.69132811 12.88820567 18.19415303 15.52983092 20.93359375 18.30859375 C21.48789062 18.85515625 22.0421875 19.40171875 22.61328125 19.96484375 C26.68359375 24.05520705 26.68359375 24.05520705 26.68359375 26.30859375 C27.34359375 26.30859375 28.00359375 26.30859375 28.68359375 26.30859375 C32.68359375 31.72035846 32.68359375 31.72035846 32.68359375 34.30859375 C33.34359375 34.30859375 34.00359375 34.30859375 34.68359375 34.30859375 C38.68359375 39.72035846 38.68359375 39.72035846 38.68359375 42.30859375 C39.34359375 42.30859375 40.00359375 42.30859375 40.68359375 42.30859375 C41.52473546 43.74153873 42.35625062 45.1801378 43.18359375 46.62109375 C43.64765625 47.42160156 44.11171875 48.22210938 44.58984375 49.046875 C45.68359375 51.30859375 45.68359375 51.30859375 45.68359375 54.30859375 C46.34359375 54.30859375 47.00359375 54.30859375 47.68359375 54.30859375 C70.47383146 98.94194241 73.27379464 147.75412411 58.1328125 195.3359375 C54.16440499 207.2002618 48.72852759 217.51303479 41.8671875 227.9140625 C40.38304595 230.17239698 39.03298527 232.4605372 37.73828125 234.83203125 C35.67125734 238.49943045 33.13632555 241.58596609 30.37109375 244.74609375 C29.88543945 245.3095752 29.39978516 245.87305664 28.89941406 246.45361328 C27.93536679 247.57043483 26.96881324 248.68509889 25.99951172 249.79736328 C24.87800115 251.08533182 23.76609869 252.38165637 22.65625 253.6796875 C21.0229681 255.57962767 19.36581164 257.45192364 17.68359375 259.30859375 C17.19246094 259.85386719 16.70132812 260.39914062 16.1953125 260.9609375 C0.82373822 277.17165479 -20.67299563 290.06015201 -41.44140625 297.87109375 C-42.46041016 298.25458984 -43.47941406 298.63808594 -44.52929688 299.03320312 C-55.84355816 303.11296421 -67.45992263 305.42864476 -79.31640625 307.30859375 C-80.54230469 307.50839844 -81.76820313 307.70820313 -83.03125 307.9140625 C-89.77223075 308.69060971 -96.60081401 308.59857548 -103.37890625 308.62109375 C-104.13184967 308.62371216 -104.88479309 308.62633057 -105.66055298 308.62902832 C-118.89001616 308.63393988 -131.4134113 307.36005016 -144.31640625 304.30859375 C-145.3827832 304.06834473 -145.3827832 304.06834473 -146.47070312 303.82324219 C-173.67836166 297.62052816 -199.02860641 284.1110967 -219.83642578 265.62109375 C-221.21318724 264.40013209 -222.60599598 263.19733156 -224 261.99609375 C-258.40849116 231.93563345 -276.0075897 190.94796019 -279.06640625 145.90234375 C-279.50734338 137.63759912 -279.14342936 129.53616098 -278.31640625 121.30859375 C-278.23261719 120.43879883 -278.14882813 119.56900391 -278.0625 118.67285156 C-275.67546084 95.1638779 -268.42606412 73.14560183 -257.31640625 52.30859375 C-256.65640625 52.30859375 -255.99640625 52.30859375 -255.31640625 52.30859375 C-255.1970874 51.72215088 -255.07776855 51.13570801 -254.95483398 50.53149414 C-254.29317959 48.22772235 -253.44578898 46.71463797 -252.1015625 44.7421875 C-251.66263672 44.09185547 -251.22371094 43.44152344 -250.77148438 42.77148438 C-250.31193359 42.10310547 -249.85238281 41.43472656 -249.37890625 40.74609375 C-248.92322266 40.07384766 -248.46753906 39.40160156 -247.99804688 38.70898438 C-247.14984688 37.45841718 -246.29928044 36.20944929 -245.44555664 34.96264648 C-244.39157302 33.41870291 -243.35336085 31.86402565 -242.31640625 30.30859375 C-241.65640625 30.30859375 -240.99640625 30.30859375 -240.31640625 30.30859375 C-239.65640625 28.65859375 -238.99640625 27.00859375 -238.31640625 25.30859375 C-237.65640625 25.30859375 -236.99640625 25.30859375 -236.31640625 25.30859375 C-236.31640625 24.64859375 -236.31640625 23.98859375 -236.31640625 23.30859375 C-235.65640625 23.30859375 -234.99640625 23.30859375 -234.31640625 23.30859375 C-234.07921875 22.7465625 -233.84203125 22.18453125 -233.59765625 21.60546875 C-232.02692928 18.78965333 -230.10169161 16.82903959 -227.81640625 14.55859375 C-227.02234375 13.759375 -226.22828125 12.96015625 -225.41015625 12.13671875 C-223.31640625 10.30859375 -223.31640625 10.30859375 -221.31640625 10.30859375 C-221.31640625 9.64859375 -221.31640625 8.98859375 -221.31640625 8.30859375 C-220.65640625 8.30859375 -219.99640625 8.30859375 -219.31640625 8.30859375 C-219.31640625 7.64859375 -219.31640625 6.98859375 -219.31640625 6.30859375 C-217.66640625 5.64859375 -216.01640625 4.98859375 -214.31640625 4.30859375 C-214.31640625 3.64859375 -214.31640625 2.98859375 -214.31640625 2.30859375 C-211.89376413 0.20017509 -209.16069735 -1.51627608 -206.50390625 -3.31640625 C-205.76591797 -3.83203125 -205.02792969 -4.34765625 -204.26757812 -4.87890625 C-203.19926758 -5.60980469 -203.19926758 -5.60980469 -202.109375 -6.35546875 C-201.45477295 -6.8035791 -200.8001709 -7.25168945 -200.12573242 -7.71337891 C-198.31640625 -8.69140625 -198.31640625 -8.69140625 -195.31640625 -8.69140625 C-195.31640625 -9.35140625 -195.31640625 -10.01140625 -195.31640625 -10.69140625 C-131.85509226 -43.60375668 -58.43487399 -45.94100338 0 0 Z M-155.31640625 -5.69140625 C-156.35925781 -5.33433594 -157.40210938 -4.97726563 -158.4765625 -4.609375 C-178.75414372 2.75757127 -196.35510667 14.97507543 -212.31640625 29.30859375 C-212.97898438 29.89898437 -213.6415625 30.489375 -214.32421875 31.09765625 C-218.21147817 34.76795236 -221.47399614 38.9133181 -224.75390625 43.12109375 C-225.20403076 43.69714355 -225.65415527 44.27319336 -226.11791992 44.86669922 C-228.54839598 47.76034242 -228.54839598 47.76034242 -229.31640625 51.30859375 C-229.97640625 51.30859375 -230.63640625 51.30859375 -231.31640625 51.30859375 C-249.10232118 76.68957505 -257.33199493 106.64216449 -257.44140625 137.30859375 C-257.4460791 138.19772461 -257.45075195 139.08685547 -257.45556641 140.00292969 C-257.42799806 151.64525612 -256.355231 162.77802496 -253.69140625 174.12109375 C-253.29381104 175.81830566 -253.29381104 175.81830566 -252.88818359 177.54980469 C-250.6449708 186.70839128 -247.67742991 194.96456329 -243.31640625 203.30859375 C-242.99913574 203.91590332 -242.68186523 204.52321289 -242.35498047 205.14892578 C-238.06820201 213.24617398 -233.34449448 221.37487724 -227.31640625 228.30859375 C-226.65640625 228.30859375 -225.99640625 228.30859375 -225.31640625 228.30859375 C-224.98640625 229.29859375 -224.65640625 230.28859375 -224.31640625 231.30859375 C-218.61753382 235.26614405 -213.29306789 237.23249801 -206.31640625 236.30859375 C-192.55313003 233.09648497 -183.66911967 222.91755271 -176.43017578 211.27490234 C-171.41554606 202.60236253 -167.19132217 193.7644256 -163.25390625 184.55859375 C-162.63947734 183.13629134 -162.02481013 181.71409185 -161.40991211 180.29199219 C-155.420041 166.39025429 -149.98591496 152.39865136 -145.09350586 138.07641602 C-142.46645252 130.49279723 -139.42568379 123.09818811 -136.24853516 115.72949219 C-134.18809758 110.85936701 -132.76299182 106.58838768 -132.31640625 101.30859375 C-131.65640625 101.30859375 -130.99640625 101.30859375 -130.31640625 101.30859375 C-130.31640625 100.64859375 -130.31640625 99.98859375 -130.31640625 99.30859375 C-122.18004261 98.99565669 -122.18004261 98.99565669 -119.31640625 101.30859375 C-116.85941482 107.10007355 -119.82694211 114.32508289 -122.015625 119.859375 C-122.67268699 121.448982 -123.33570935 123.03613515 -124.00390625 124.62109375 C-126.68187771 131.12551019 -129.15425395 137.6367732 -131.37890625 144.30859375 C-134.74458763 154.23038469 -138.73968928 163.88634261 -142.75390625 173.55859375 C-143.06683624 174.31769043 -143.37976624 175.07678711 -143.70217896 175.85888672 C-147.08836555 184.05654458 -150.62051598 192.14804468 -154.57421875 200.08984375 C-155.05942238 201.06585541 -155.05942238 201.06585541 -155.5544281 202.06158447 C-158.33249797 207.54114676 -161.61804378 212.42203397 -165.31640625 217.30859375 C-166.00476563 218.28441406 -166.693125 219.26023437 -167.40234375 220.265625 C-176.50274174 232.95828536 -187.66103476 243.72310981 -203.44140625 246.7109375 C-205.06112391 246.94932336 -206.68842635 247.1354044 -208.31640625 247.30859375 C-206.67288262 249.00347749 -205.0063372 250.66059657 -203.31640625 252.30859375 C-202.58357422 253.05302734 -202.58357422 253.05302734 -201.8359375 253.8125 C-175.99137757 278.3559608 -135.52999367 288.94877831 -100.84375 288.4609375 C-72.26796367 287.71333314 -44.11447563 279.17397334 -20.31640625 263.30859375 C-20.31640625 262.64859375 -20.31640625 261.98859375 -20.31640625 261.30859375 C-19.754375 261.20417969 -19.19234375 261.09976562 -18.61328125 260.9921875 C-15.89260154 260.1824614 -13.92382818 258.94656037 -11.56640625 257.37109375 C-10.36757813 256.58412109 -10.36757813 256.58412109 -9.14453125 255.78125 C-8.23960937 255.05228516 -8.23960937 255.05228516 -7.31640625 254.30859375 C-7.31640625 253.64859375 -7.31640625 252.98859375 -7.31640625 252.30859375 C-6.65640625 252.30859375 -5.99640625 252.30859375 -5.31640625 252.30859375 C-3.62706703 250.66491235 -1.96380701 248.99430615 -0.31640625 247.30859375 C1.35026042 245.97526042 3.01692708 244.64192708 4.68359375 243.30859375 C14.54641138 233.86410117 21.83559827 222.03994958 28.68359375 210.30859375 C29.23128418 209.37370117 29.23128418 209.37370117 29.79003906 208.41992188 C36.65028803 196.44774223 40.29843578 183.62024356 43.68359375 170.30859375 C43.87856445 169.58687988 44.07353516 168.86516602 44.27441406 168.12158203 C49.54050986 148.17989423 48.90263801 122.15880481 43.68359375 102.30859375 C43.38195312 101.07882813 43.0803125 99.8490625 42.76953125 98.58203125 C40.79471393 91.08414761 38.11529816 84.24501756 34.68359375 77.30859375 C34.08878334 76.04867716 33.49510826 74.78822419 32.90234375 73.52734375 C28.58133686 64.47198782 23.6070865 56.40731102 17.68359375 48.30859375 C17.02359375 47.31859375 16.36359375 46.32859375 15.68359375 45.30859375 C15.02359375 45.30859375 14.36359375 45.30859375 13.68359375 45.30859375 C13.47734375 44.75171875 13.27109375 44.19484375 13.05859375 43.62109375 C10.69618473 39.64795131 7.41884795 36.98576612 3.12109375 35.30859375 C-0.29893816 35.30859375 -1.67102028 36.13802065 -4.31640625 38.30859375 C-7.97841844 43.63515694 -10.97636691 49.96768297 -12.31640625 56.30859375 C-11.18557188 59.90922589 -8.59524216 62.39039404 -6.12890625 65.18359375 C8.88588996 83.38480973 11.10421065 103.60127288 9.68359375 126.30859375 C9.18398407 131.44593047 8.09445976 136.34506513 6.68359375 141.30859375 C6.5119873 141.93314453 6.34038086 142.55769531 6.16357422 143.20117188 C0.57652295 163.31255927 -7.23509025 181.38372294 -22.31640625 196.30859375 C-22.97640625 196.63859375 -23.63640625 196.96859375 -24.31640625 197.30859375 C-24.31640625 197.96859375 -24.31640625 198.62859375 -24.31640625 199.30859375 C-24.97640625 199.55609375 -25.63640625 199.80359375 -26.31640625 200.05859375 C-29.42494198 201.35381697 -32.37161159 202.84251339 -35.3515625 204.40625 C-40.45059944 206.74795484 -46.10888849 207.24054633 -51.5078125 205.671875 C-53.46821096 204.9317614 -55.39026882 204.13286099 -57.31640625 203.30859375 C-58.30640625 202.97859375 -59.29640625 202.64859375 -60.31640625 202.30859375 C-61.40234375 200.49609375 -61.40234375 200.49609375 -62.31640625 198.30859375 C-62.59742188 197.66921875 -62.8784375 197.02984375 -63.16796875 196.37109375 C-65.56609594 189.97608792 -65.6259298 184.08372034 -65.31640625 177.30859375 C-65.89648438 177.71851563 -66.4765625 178.1284375 -67.07421875 178.55078125 C-73.49289412 182.97818439 -78.46444656 186.11246985 -86.4296875 184.77734375 C-90.76821511 183.69944869 -92.87168648 181.88920011 -95.56640625 178.37109375 C-99.76761547 171.01897762 -99.26733723 161.92887796 -97.59765625 153.81640625 C-93.673138 140.36543646 -86.4889708 127.80496519 -74.31640625 120.30859375 C-65.5040009 115.82508927 -58.69796204 116.25584827 -49.31640625 118.30859375 C-46.16778124 111.97784773 -44.14789291 105.56769776 -42.34375 98.73828125 C-41.25762574 95.11236071 -39.8172574 91.78188518 -38.31640625 88.30859375 C-37.25745897 85.36932084 -36.2846287 82.40381782 -35.31640625 79.43359375 C-34.81640625 77.91536458 -34.31640625 76.39713542 -33.81640625 74.87890625 C-33.57277344 74.13543945 -33.32914063 73.39197266 -33.078125 72.62597656 C-31.83675338 68.84934212 -30.57655838 65.07899573 -29.31640625 61.30859375 C-30.32703125 60.68984375 -31.33765625 60.07109375 -32.37890625 59.43359375 C-32.94738281 59.08554688 -33.51585937 58.7375 -34.1015625 58.37890625 C-43.94588442 53.62168543 -56.58244466 53.94572554 -67.00390625 56.74609375 C-74.50049147 59.36469918 -80.85175034 63.79553208 -87.31640625 68.30859375 C-88.30640625 68.96859375 -89.29640625 69.62859375 -90.31640625 70.30859375 C-90.31640625 70.96859375 -90.31640625 71.62859375 -90.31640625 72.30859375 C-90.97640625 72.30859375 -91.63640625 72.30859375 -92.31640625 72.30859375 C-92.31640625 72.96859375 -92.31640625 73.62859375 -92.31640625 74.30859375 C-92.97640625 74.30859375 -93.63640625 74.30859375 -94.31640625 74.30859375 C-94.31640625 74.96859375 -94.31640625 75.62859375 -94.31640625 76.30859375 C-102.19140625 75.43359375 -102.19140625 75.43359375 -103.31640625 74.30859375 C-103.68726718 68.46753415 -103.68726718 68.46753415 -103.31640625 66.30859375 C-102.32640625 65.64859375 -101.33640625 64.98859375 -100.31640625 64.30859375 C-100.31640625 63.64859375 -100.31640625 62.98859375 -100.31640625 62.30859375 C-99.65640625 62.30859375 -98.99640625 62.30859375 -98.31640625 62.30859375 C-98.31640625 61.64859375 -98.31640625 60.98859375 -98.31640625 60.30859375 C-97.65640625 60.30859375 -96.99640625 60.30859375 -96.31640625 60.30859375 C-96.31640625 59.64859375 -96.31640625 58.98859375 -96.31640625 58.30859375 C-95.57390625 58.03660156 -94.83140625 57.76460938 -94.06640625 57.484375 C-91.47665005 56.37710708 -89.56806495 55.16284892 -87.31640625 53.49609375 C-74.31147228 44.66051569 -58.09970296 41.47256246 -42.65625 43.87890625 C-36.69110754 45.07068024 -31.73538011 46.52102362 -26.31640625 49.30859375 C-25.65640625 49.30859375 -24.99640625 49.30859375 -24.31640625 49.30859375 C-23.00145083 46.70564099 -21.68935639 44.10131342 -20.37890625 41.49609375 C-20.00572266 40.75810547 -19.63253906 40.02011719 -19.24804688 39.25976562 C-18.89033203 38.54755859 -18.53261719 37.83535156 -18.1640625 37.1015625 C-17.83414307 36.44696045 -17.50422363 35.7923584 -17.16430664 35.11791992 C-16.19806946 33.14728754 -16.19806946 33.14728754 -15.31640625 30.30859375 C-14.65640625 30.30859375 -13.99640625 30.30859375 -13.31640625 30.30859375 C-13.31640625 29.64859375 -13.31640625 28.98859375 -13.31640625 28.30859375 C-8.73304717 26.38653994 -4.03706592 24.85129299 0.68359375 23.30859375 C0.68359375 21.98859375 0.68359375 20.66859375 0.68359375 19.30859375 C-2.72179542 17.0383343 -3.90042706 17.14702908 -7.87890625 17.12109375 C-13.81518731 16.69656829 -16.76761734 15.06220429 -21.38671875 11.46875 C-37.16870315 -0.16783316 -56.28151034 -7.47696445 -75.31640625 -11.69140625 C-76.42254272 -11.95630859 -76.42254272 -11.95630859 -77.55102539 -12.2265625 C-85.80110901 -13.99822268 -93.99250636 -14.06366516 -102.39282227 -14.06201172 C-104.85049331 -14.06635603 -107.3063201 -14.10270214 -109.76367188 -14.140625 C-125.64770933 -14.25229464 -140.32132519 -10.82984804 -155.31640625 -5.69140625 Z M-17.31640625 74.30859375 C-17.84258545 75.81981812 -17.84258545 75.81981812 -18.37939453 77.36157227 C-20.06443552 82.19888146 -21.75270744 87.03506049 -23.44140625 91.87109375 C-23.75297668 92.76395081 -24.06454712 93.65680786 -24.38555908 94.57672119 C-28.19674701 105.49240106 -32.05241504 116.38975951 -35.99810791 127.25756836 C-43.36101435 147.53494274 -43.36101435 147.53494274 -50.19140625 167.99609375 C-50.51931152 168.98593262 -50.8472168 169.97577148 -51.18505859 170.99560547 C-53.21580443 177.56232692 -54.62597077 184.45861307 -53.31640625 191.30859375 C-51.39717025 193.64062701 -50.18743609 195.0521146 -47.2734375 195.91015625 C-40.48429253 195.98435456 -36.47445438 193.56422094 -31.31640625 189.30859375 C-30.70925781 188.81359375 -30.10210937 188.31859375 -29.4765625 187.80859375 C-14.61168288 174.32570974 -6.53586288 149.77872691 -3.31640625 130.30859375 C-3.09299133 125.56093281 -3.13126126 120.81099733 -3.12890625 116.05859375 C-3.11666016 114.77339844 -3.10441406 113.48820312 -3.09179688 112.1640625 C-3.0753891 101.49900781 -4.34491358 93.35688702 -9.19140625 83.87109375 C-9.53042969 83.16533203 -9.86945313 82.45957031 -10.21875 81.73242188 C-12.12899184 77.93009639 -13.40605683 75.95755472 -17.31640625 74.30859375 Z M-77.31640625 137.30859375 C-79.0141267 139.9048863 -80.32995059 142.62047084 -81.62890625 145.43359375 C-81.97501953 146.14902344 -82.32113281 146.86445313 -82.67773438 147.6015625 C-85.49998444 153.48812697 -86.47571264 157.90433856 -86.44140625 164.37109375 C-86.44527344 165.10392578 -86.44914063 165.83675781 -86.453125 166.59179688 C-86.52736382 170.57979563 -86.52736382 170.57979563 -85.31640625 174.30859375 C-78.90387437 174.14828045 -75.56574151 170.67786992 -71.31640625 166.30859375 C-62.32733064 156.64533747 -56.90995306 142.79144058 -53.31640625 130.30859375 C-62.7841572 126.38332387 -70.36287535 129.99585695 -77.31640625 137.30859375 Z " fill="#2C2C2C" transform="translate(357.31640625,114.69140625)"/>
<path d="M0 0 C0.99 0.495 0.99 0.495 2 1 C2 1.99 2 2.98 2 4 C3.32 4 4.64 4 6 4 C6.99 5.485 6.99 5.485 8 7 C8.99 6.67 9.98 6.34 11 6 C11.99 6.66 12.98 7.32 14 8 C13.21625 8.20625 12.4325 8.4125 11.625 8.625 C8.74505991 9.7590417 8.74505991 9.7590417 8.0078125 12.703125 C7.67523438 13.79109375 7.34265625 14.8790625 7 16 C5.63695287 19.07860644 4.24297049 22.14017911 2.828125 25.1953125 C1.76299862 27.8751015 1.76299862 27.8751015 2.59765625 30.0625 C4.33364031 32.46096265 6.22752125 34.65526503 8.1875 36.875 C23.20229621 55.07621598 25.4206169 75.29267913 24 98 C23.50039032 103.13733672 22.41086601 108.03647138 21 113 C20.82839355 113.62455078 20.65678711 114.24910156 20.47998047 114.89257812 C14.97325332 134.71482741 7.29672476 153.60840688 -8 168 C-8.99 168.33 -9.98 168.66 -11 169 C-11 169.66 -11 170.32 -11 171 C-18.10608869 176.86687977 -26.8707038 179.86945678 -36 179 C-42.77237821 177.3761398 -46.73239702 174.23943283 -50.75 168.5 C-52.92931495 164.1413701 -53.120565 160.00689496 -53.0625 155.1875 C-53.05347656 154.21167969 -53.04445313 153.23585938 -53.03515625 152.23046875 C-53.02355469 151.49441406 -53.01195312 150.75835937 -53 150 C-53.50789063 150.40992188 -54.01578125 150.81984375 -54.5390625 151.2421875 C-59.79336057 155.35510247 -64.08407369 158.38583547 -71 157.875 C-76.52375421 156.95788814 -79.91086468 154.41293231 -83.3125 150 C-87.44370527 142.65563508 -86.94266638 133.58012904 -85.28125 125.5078125 C-81.33920067 111.99675632 -73.50486614 97.83188298 -60.8046875 90.78125 C-52.09288978 86.64683752 -45.26388345 86.97300199 -36 89 C-35.68289063 88.03707031 -35.36578125 87.07414062 -35.0390625 86.08203125 C-31.92316883 76.65765484 -28.74764405 67.25324799 -25.53289795 57.8621521 C-24.88721589 55.97323707 -24.24557046 54.08294377 -23.60400391 52.19262695 C-21.35601806 45.64435867 -18.97597529 39.25450463 -16 33 C-16.825 32.731875 -17.65 32.46375 -18.5 32.1875 C-22 31 -22 31 -25.3125 29.375 C-34.90268878 25.79245822 -47.3376538 27.22746526 -56.78515625 30.515625 C-61.88740009 32.87146055 -66.48482963 35.88709728 -71.1015625 39.07421875 C-74 41 -74 41 -77 42 C-77 42.66 -77 43.32 -77 44 C-77.66 44 -78.32 44 -79 44 C-79 44.66 -79 45.32 -79 46 C-79.66 46 -80.32 46 -81 46 C-81 46.66 -81 47.32 -81 48 C-87.0546875 48.1953125 -87.0546875 48.1953125 -89 48 C-91 46 -91 46 -91.1953125 44.0546875 C-91.09765625 41.02734375 -91.09765625 41.02734375 -91 38 C-89.68 37.34 -88.36 36.68 -87 36 C-87 35.34 -87 34.68 -87 34 C-86.34 34 -85.68 34 -85 34 C-85 33.34 -85 32.68 -85 32 C-84.34 32 -83.68 32 -83 32 C-83 31.34 -83 30.68 -83 30 C-68.2069381 18.83489435 -51.57939056 12.7773844 -33 14 C-25.02584325 15.17495701 -17.98737694 16.94732137 -11 21 C-10.85304688 20.46632812 -10.70609375 19.93265625 -10.5546875 19.3828125 C-8.65591016 13.07537972 -5.96781869 7.29410907 -2 2 C-1.34 2 -0.68 2 0 2 C0 1.34 0 0.68 0 0 Z M-4 46 C-4.5261792 47.51122437 -4.5261792 47.51122437 -5.06298828 49.05297852 C-6.74802927 53.89028771 -8.43630119 58.72646674 -10.125 63.5625 C-10.43657043 64.45535706 -10.74814087 65.34821411 -11.06915283 66.26812744 C-14.88034076 77.18380731 -18.73600879 88.08116576 -22.68170166 98.94897461 C-30.0446081 119.22634899 -30.0446081 119.22634899 -36.875 139.6875 C-37.20290527 140.67733887 -37.53081055 141.66717773 -37.86865234 142.68701172 C-39.89939818 149.25373317 -41.30956452 156.15001932 -40 163 C-38.080764 165.33203326 -36.87102984 166.74352085 -33.95703125 167.6015625 C-27.16788628 167.67576081 -23.15804813 165.25562719 -18 161 C-17.39285156 160.505 -16.78570312 160.01 -16.16015625 159.5 C-1.29527663 146.01711599 6.78054337 121.47013316 10 102 C10.22341492 97.25233906 10.18514499 92.50240358 10.1875 87.75 C10.19974609 86.46480469 10.21199219 85.17960937 10.22460938 83.85546875 C10.24101715 73.19041406 8.97149267 65.04829327 4.125 55.5625 C3.78597656 54.85673828 3.44695312 54.15097656 3.09765625 53.42382812 C1.18741441 49.62150264 -0.08965058 47.64896097 -4 46 Z M-64 109 C-65.69772045 111.59629255 -67.01354434 114.31187709 -68.3125 117.125 C-68.65861328 117.84042969 -69.00472656 118.55585938 -69.36132812 119.29296875 C-72.18357819 125.17953322 -73.15930639 129.59574481 -73.125 136.0625 C-73.12886719 136.79533203 -73.13273437 137.52816406 -73.13671875 138.28320312 C-73.21095757 142.27120188 -73.21095757 142.27120188 -72 146 C-65.58746812 145.8396867 -62.24933526 142.36927617 -58 138 C-49.01092439 128.33674372 -43.59354681 114.48284683 -40 102 C-49.46775095 98.07473012 -57.0464691 101.6872632 -64 109 Z " fill="#313131" transform="translate(344,143)"/>
<path d="M0 0 C1.29296875 1.48046875 1.29296875 1.48046875 1.29296875 3.48046875 C1.95296875 3.48046875 2.61296875 3.48046875 3.29296875 3.48046875 C9.12769736 18.4319608 -0.96159146 35.56458861 -6.56811523 49.53125 C-9.90201846 57.85670044 -13.0738127 66.18151655 -15.66015625 74.7734375 C-15.87304794 75.4671344 -16.08593964 76.1608313 -16.30528259 76.87554932 C-17.83864758 82.17149562 -17.96748599 86.1477756 -16.70703125 91.48046875 C-15.8871875 91.4340625 -15.06734375 91.38765625 -14.22265625 91.33984375 C-13.145 91.30375 -12.06734375 91.26765625 -10.95703125 91.23046875 C-9.8896875 91.1840625 -8.82234375 91.13765625 -7.72265625 91.08984375 C-4.70703125 91.48046875 -4.70703125 91.48046875 -2.3203125 93.3046875 C-0.70703125 95.48046875 -0.70703125 95.48046875 -0.64453125 98.54296875 C-1.70703125 101.48046875 -1.70703125 101.48046875 -3.64453125 103.35546875 C-9.41739895 105.47611403 -15.27642874 105.433704 -20.95703125 102.98046875 C-27.34773971 99.33233153 -30.78117013 93.41705452 -32.70703125 86.48046875 C-34.81806186 70.16997958 -26.72315825 54.79646784 -20.90063477 39.9927063 C-16.95650719 29.96093622 -13.37866041 19.93399447 -10.70703125 9.48046875 C-14.18000572 5.37687523 -18.12827635 3.62074098 -22.95703125 1.54296875 C-23.75334961 1.19669434 -24.54966797 0.85041992 -25.37011719 0.49365234 C-47.92598306 -9.11115607 -73.04066718 -14.00746773 -96.70703125 -5.51953125 C-107.62511252 -0.5298199 -114.11768145 5.54608249 -118.7890625 16.58203125 C-121.06649883 23.77291533 -120.54382774 30.87465014 -117.0859375 37.59765625 C-113.98839111 41.82716718 -110.13880106 43.10243578 -105.09375 43.88671875 C-97.9911702 44.28856202 -92.52484778 42.54580815 -86.70703125 38.48046875 C-83.00463464 35.11535051 -79.93837319 31.40583651 -78.70703125 26.48046875 C-78.66610188 24.14749442 -78.66461402 21.8134165 -78.70703125 19.48046875 C-78.20703125 17.04296875 -78.20703125 17.04296875 -77.70703125 15.48046875 C-74.45703125 14.73046875 -74.45703125 14.73046875 -70.70703125 14.48046875 C-67.7613052 16.65100374 -66.86642184 18.00229698 -65.70703125 21.48046875 C-64.9393621 29.00362642 -67.25734865 35.09282215 -71.625 41.1328125 C-78.01965743 48.65926771 -85.76707112 54.76668252 -95.70703125 56.48046875 C-104.60699761 57.17676768 -112.98725293 56.89753369 -120.41015625 51.5234375 C-127.77195336 45.20563794 -133.02288538 38.40189259 -134.0078125 28.4375 C-134.05921911 14.64339251 -130.57311078 3.48850505 -120.89453125 -6.70703125 C-118.70703125 -8.51953125 -118.70703125 -8.51953125 -116.70703125 -8.51953125 C-116.70703125 -9.17953125 -116.70703125 -9.83953125 -116.70703125 -10.51953125 C-114.72703125 -11.17953125 -112.74703125 -11.83953125 -110.70703125 -12.51953125 C-110.70703125 -13.17953125 -110.70703125 -13.83953125 -110.70703125 -14.51953125 C-95.33232068 -21.47423674 -95.33232068 -21.47423674 -87.70703125 -22.51953125 C-86.90136719 -22.64070312 -86.09570312 -22.761875 -85.265625 -22.88671875 C-56.71996117 -26.21636944 -21.89627153 -19.72921786 0 0 Z " fill="#2E2E2E" transform="translate(263.70703125,204.51953125)"/>
<path d="M0 0 C1.93140566 2.08097872 2.93626146 3.35651045 3.21923828 6.21337891 C2.46198008 12.81542854 0.55932899 18.32072468 -2.125 24.375 C-5.0505443 31.22726469 -7.78390686 38.05236248 -10.125 45.125 C-13.46059026 55.00907054 -17.4401666 64.62009402 -21.4375 74.25 C-21.90703094 75.38891693 -21.90703094 75.38891693 -22.38604736 76.55084229 C-25.7721409 84.74832149 -29.30419878 92.8396298 -33.2578125 100.78125 C-33.58128159 101.43192444 -33.90475067 102.08259888 -34.23802185 102.75299072 C-37.01512799 108.23065211 -40.29498666 113.12003529 -44 118 C-45.08474609 119.49853516 -45.08474609 119.49853516 -46.19140625 121.02734375 C-56.98731685 135.80550225 -56.98731685 135.80550225 -64 139 C-66.60334924 136.28817788 -66.99456691 135.10866187 -67.1875 131.25 C-67.0946875 129.64125 -67.0946875 129.64125 -67 128 C-69.2773501 130.81509993 -69.2773501 130.81509993 -69 134 C-69.99 134.99 -69.99 134.99 -71 136 C-71.99 136 -72.98 136 -74 136 C-72.68488201 130.95499933 -70.67009099 128.16163578 -67.0625 124.4375 C-63.84756205 121.09945692 -61.3456266 117.98406428 -59 114 C-58.01 113.505 -58.01 113.505 -57 113 C-56.29870969 111.34760352 -55.64008047 109.67705671 -55 108 C-54.18598577 106.39441303 -53.37041521 104.78953912 -52.53857422 103.19311523 C-46.27731719 91.12946769 -41.18290288 78.55372219 -36 66 C-35.52385254 64.8560376 -35.52385254 64.8560376 -35.03808594 63.68896484 C-31.648692 55.53561167 -28.68649014 47.27764232 -25.82861328 38.92822266 C-23.1530295 31.21659237 -20.09027601 23.68327085 -16.93237305 16.15795898 C-16.56539307 15.28083252 -16.19841309 14.40370605 -15.8203125 13.5 C-15.49305176 12.7265625 -15.16579102 11.953125 -14.82861328 11.15625 C-14.04372641 9.11378659 -13.50065918 7.12684815 -13 5 C-12.67 4.01 -12.34 3.02 -12 2 C-11.34 2 -10.68 2 -10 2 C-10 1.34 -10 0.68 -10 0 C-6.82503506 -1.58748247 -3.30053472 -1.07839253 0 0 Z " fill="#242424" transform="translate(237,214)"/>
<path d="M0 0 C3.62438584 1.85075022 4.53090609 2.67093879 5.9375 6.5 C7.34416429 16.19035403 4.20878949 22.8267293 -1.25 30.625 C-1.848125 31.24375 -2.44625 31.8625 -3.0625 32.5 C-3.7225 32.5 -4.3825 32.5 -5.0625 32.5 C-5.3925 33.49 -5.7225 34.48 -6.0625 35.5 C-8.49609375 37.10546875 -8.49609375 37.10546875 -11.5 38.6875 C-12.48871094 39.21730469 -13.47742188 39.74710937 -14.49609375 40.29296875 C-17.0625 41.5 -17.0625 41.5 -19.0625 41.5 C-19.5575 42.49 -19.5575 42.49 -20.0625 43.5 C-22.5390625 44.31640625 -22.5390625 44.31640625 -25.6875 45.0625 C-26.71101563 45.31128906 -27.73453125 45.56007813 -28.7890625 45.81640625 C-44.25652648 49.04648524 -59.77716637 48.14016766 -75.0625 44.5 C-76.05636719 44.2834375 -77.05023438 44.066875 -78.07421875 43.84375 C-85.7107052 42.01360774 -95.56937704 39.23968444 -100.0625 32.5 C-100.4375 29.5 -100.4375 29.5 -100.0625 26.5 C-98.4375 24.5625 -98.4375 24.5625 -96.0625 23.5 C-92.81636738 23.76499042 -90.14889595 24.47120135 -87.0625 25.5 C-87.0625 26.16 -87.0625 26.82 -87.0625 27.5 C-86.05896484 27.67015625 -86.05896484 27.67015625 -85.03515625 27.84375 C-81.42998085 28.63963629 -77.98554112 29.80045291 -74.5 31 C-65.63650967 34.0324747 -58.40371619 34.74256656 -49 34.8125 C-47.72705078 34.84150391 -46.45410156 34.87050781 -45.14257812 34.90039062 C-31.47078357 34.99167636 -21.2921666 30.96055313 -11.125 21.875 C-6.46542579 16.50942969 -6.99065518 12.40590566 -7.3828125 5.49609375 C-7.0625 2.5 -7.0625 2.5 -5.24609375 0.56640625 C-3.0625 -0.5 -3.0625 -0.5 0 0 Z " fill="#222222" transform="translate(276.0625,339.5)"/>
<path d="M0 0 C2.125 1.9375 2.125 1.9375 3 4 C2.86340503 6.8001969 2.31153277 8.48077872 0.875 10.875 C-1.52017599 12.3121056 -3.17342617 12.09313106 -5.8671875 11.5859375 C-8.359773 10.90116126 -10.71495444 9.99700746 -13.125 9.0625 C-25.4583281 4.42692812 -38.70788025 3.35926464 -50.94921875 8.87890625 C-54.54185565 10.6803886 -54.54185565 10.6803886 -56.875 13.8125 C-56.91625 14.534375 -56.9575 15.25625 -57 16 C-57.375 19.625 -57.375 19.625 -58 23 C-61 25 -61 25 -64 24.875 C-67.53273708 23.84461835 -68.16433901 23.10568226 -70 20 C-70.98685308 14.70388848 -70.72178399 9.46668756 -68.125 4.6875 C-62.40418158 -3.08898855 -53.79312768 -5.87747594 -44.625 -7.52734375 C-30.47387838 -9.37247922 -12.4552909 -7.8811394 0 0 Z " fill="#4C4C4C" transform="translate(292,136)"/>
<path d="M0 0 C3.5625 0.4375 3.5625 0.4375 5.3125 2.4296875 C7.00807621 6.50966775 6.57590267 9.67658585 6.125 14 C5.40298568 23.07282466 5.80582709 31.2455953 9.1875 39.8125 C10.54580522 43.39348648 11.08946791 45.66089663 10.5625 49.4375 C9.4375 51.3125 9.4375 51.3125 7.5625 52.4375 C4.5625 52.8125 4.5625 52.8125 1.5625 52.4375 C-1.14284461 50.29492131 -2.2544924 47.98930075 -3.5 44.8125 C-3.82097656 44.01585937 -4.14195312 43.21921875 -4.47265625 42.3984375 C-6.87887822 35.01416118 -7.75869525 28.12934912 -7.6875 20.375 C-7.69523437 19.52873047 -7.70296875 18.68246094 -7.7109375 17.81054688 C-7.65901533 0.97478377 -7.65901533 0.97478377 0 0 Z " fill="#232323" transform="translate(135.4375,280.5625)"/>
<path d="M0 0 C4.60272162 1.77027754 7.7129243 3.18699218 11 7 C8.3125 7.75 8.3125 7.75 5 8 C2.125 6.3125 2.125 6.3125 0 4 C0 2.68 0 1.36 0 0 Z " fill="#454545" transform="translate(338,103)"/>
<path d="M0 0 C0.66 0.33 1.32 0.66 2 1 C0.25 4.875 0.25 4.875 -2 6 C-3.57548683 8.62581138 -4 9.87099787 -4 13 C-5.375 14.6875 -5.375 14.6875 -7 16 C-7.66 16 -8.32 16 -9 16 C-7.58163643 10.8423143 -5.32608425 6.20024742 -2 2 C-1.34 2 -0.68 2 0 2 C0 1.34 0 0.68 0 0 Z " fill="#848484" transform="translate(344,143)"/>
<path d="M0 0 C-3.12621626 3.39417765 -5.56541027 5.6062718 -10 7 C-10.33 6.01 -10.66 5.02 -11 4 C-9 1 -9 1 -7.1875 0.3125 C-4.76407022 -0.03370425 -2.44491162 -0.06791421 0 0 Z " fill="#232323" transform="translate(187,250)"/>
<path d="M0 0 C-1.00313062 2.23775292 -1.84476835 3.8507388 -3.625 5.5625 C-5.34561132 7.02978279 -5.34561132 7.02978279 -5 10 C-5.66 10.66 -6.32 11.32 -7 12 C-7.99 12 -8.98 12 -10 12 C-8.88685188 7.3247779 -5.68510408 0 0 0 Z " fill="#131313" transform="translate(173,338)"/>
<path d="M0 0 C0.33 0.99 0.66 1.98 1 3 C0.195625 3.763125 -0.60875 4.52625 -1.4375 5.3125 C-4.16799024 7.79430898 -4.16799024 7.79430898 -5 11 C-5.66 11 -6.32 11 -7 11 C-7.33 11.99 -7.66 12.98 -8 14 C-8.66 13.67 -9.32 13.34 -10 13 C-3.84965831 3.40546697 -3.84965831 3.40546697 0 0 Z " fill="#858585" transform="translate(145,196)"/>
<path d="M0 0 C0.928125 0.20625 1.85625 0.4125 2.8125 0.625 C-0.15033313 3.01172669 -3.13020509 5.3603371 -6.1875 7.625 C-6.8475 7.295 -7.5075 6.965 -8.1875 6.625 C-6.59083531 1.95782629 -5.4448172 -0.64056673 0 0 Z " fill="#757575" transform="translate(170.1875,122.375)"/>
<path d="M0 0 C0 0.66 0 1.32 0 2 C-0.66 2 -1.32 2 -2 2 C-2 2.66 -2 3.32 -2 4 C-4.375 5.0625 -4.375 5.0625 -7 6 C-7.66 5.67 -8.32 5.34 -9 5 C-5.28508772 -1.58552632 -5.28508772 -1.58552632 0 0 Z " fill="#222222" transform="translate(302,265)"/>
<path d="M0 0 C1.5625 1.1875 1.5625 1.1875 3 3 C2.6875 5.6875 2.6875 5.6875 2 8 C-0.64 6.68 -3.28 5.36 -6 4 C-2 2 -2 2 0 2 C0 1.34 0 0.68 0 0 Z " fill="#777777" transform="translate(327,169)"/>
<path d="M0 0 C2.625 0.375 2.625 0.375 5 1 C5 2.32 5 3.64 5 5 C1 5 1 5 -0.75 3.5 C-1.1625 3.005 -1.575 2.51 -2 2 C-1.34 1.34 -0.68 0.68 0 0 Z " fill="#191919" transform="translate(339,393)"/>
<path d="M0 0 C5.75 1.75 5.75 1.75 8 4 C7.01 4 6.02 4 5 4 C4.67 4.66 4.34 5.32 4 6 C2.35 5.67 0.7 5.34 -1 5 C-0.67 3.35 -0.34 1.7 0 0 Z " fill="#585858" transform="translate(242,192)"/>
<path d="M0 0 C0 0.99 0 1.98 0 3 C-2.94226752 5.6153489 -6.96883555 9 -11 9 C-11 8.34 -11 7.68 -11 7 C-9.21601386 5.71993203 -7.37146094 4.52339649 -5.5 3.375 C-3.96859375 2.42753906 -3.96859375 2.42753906 -2.40625 1.4609375 C-1.6121875 0.97882813 -0.818125 0.49671875 0 0 Z " fill="#747474" transform="translate(272,166)"/>
<path d="M0 0 C1.32 0 2.64 0 4 0 C4.66 1.65 5.32 3.3 6 5 C5.01 5.66 4.02 6.32 3 7 C0 3.375 0 3.375 0 0 Z " fill="#141414" transform="translate(170,346)"/>
<path d="M0 0 C0.33 0 0.66 0 1 0 C0.6875 3.375 0.6875 3.375 0 7 C-0.99 7.66 -1.98 8.32 -3 9 C-3.99 8.67 -4.98 8.34 -6 8 C-5.34 8 -4.68 8 -4 8 C-4 6.68 -4 5.36 -4 4 C-2.68 4 -1.36 4 0 4 C0 2.68 0 1.36 0 0 Z " fill="#8E8E8E" transform="translate(234,152)"/>
<path d="M0 0 C0 0.66 0 1.32 0 2 C-3.22791555 4.1519437 -4.28400809 4.20086443 -8 4 C-8 3.01 -8 2.02 -8 1 C-5.29120665 -0.35439668 -2.99066732 -0.06501451 0 0 Z " fill="#373737" transform="translate(350,147)"/>
<path d="M0 0 C0.66 0 1.32 0 2 0 C2 1.32 2 2.64 2 4 C1.34 4 0.68 4 0 4 C0 4.66 0 5.32 0 6 C-4.875 4.25 -4.875 4.25 -6 2 C-4.7934375 1.7834375 -4.7934375 1.7834375 -3.5625 1.5625 C-1.07896294 1.25864751 -1.07896294 1.25864751 0 0 Z " fill="#646464" transform="translate(336,120)"/>
<path d="M0 0 C1.32 0.33 2.64 0.66 4 1 C3.8125 3.375 3.8125 3.375 3 6 C0.4375 7.3125 0.4375 7.3125 -2 8 C-1.34 5.36 -0.68 2.72 0 0 Z " fill="#404040" transform="translate(348,264)"/>
<path d="M0 0 C-1.32 1.32 -2.64 2.64 -4 4 C-4 3.34 -4 2.68 -4 2 C-4.99 2.66 -5.98 3.32 -7 4 C-9.6875 4.125 -9.6875 4.125 -12 4 C-9.94577945 1.94577945 -8.66990976 1.31862408 -6 0.3125 C-5.29875 0.04050781 -4.5975 -0.23148437 -3.875 -0.51171875 C-2 -1 -2 -1 0 0 Z " fill="#7A7A7A" transform="translate(194,91)"/>
<path d="M0 0 C0.99 0.33 1.98 0.66 3 1 C2.75 3.375 2.75 3.375 2 6 C-0.0625 7.3125 -0.0625 7.3125 -2 8 C-1.34 5.36 -0.68 2.72 0 0 Z " fill="#3A3A3A" transform="translate(301,251)"/>
<path d="M0 0 C4.02992782 0.55312735 8.02022924 1.1558062 12 2 C12 2.33 12 2.66 12 3 C7.545 3.495 7.545 3.495 3 4 C3 3.01 3 2.02 3 1 C2.01 0.67 1.02 0.34 0 0 Z " fill="#9A9A9A" transform="translate(216,184)"/>
<path d="M0 0 C1.32 0.33 2.64 0.66 4 1 C4 1.99 4 2.98 4 4 C4.66 4.33 5.32 4.66 6 5 C5.34 6.32 4.68 7.64 4 9 C0 2.25 0 2.25 0 0 Z " fill="#747474" transform="translate(384,176)"/>
<path d="M0 0 C1.32 0.66 2.64 1.32 4 2 C2.7934375 2.4021875 2.7934375 2.4021875 1.5625 2.8125 C0.716875 3.204375 -0.12875 3.59625 -1 4 C-1.33 4.99 -1.66 5.98 -2 7 C-2.66 6.01 -3.32 5.02 -4 4 C-2.68 2.68 -1.36 1.36 0 0 Z " fill="#7F7F7F" transform="translate(354,149)"/>
<path d="M0 0 C0.66 0.33 1.32 0.66 2 1 C2 1.66 2 2.32 2 3 C0.07335866 4.60553445 -1.75633004 5.87816502 -4 7 C-4.99 6.34 -5.98 5.68 -7 5 C-3.375 2 -3.375 2 0 2 C0 1.34 0 0.68 0 0 Z " fill="#757575" transform="translate(162,104)"/>
<path d="M0 0 C3.93673644 1.31224548 6.22719294 2.91910327 9 6 C7.35 6 5.7 6 4 6 C4 5.01 4 4.02 4 3 C2.68 2.67 1.36 2.34 0 2 C0 1.34 0 0.68 0 0 Z " fill="#7F7F7F" transform="translate(340,104)"/>
<path d="M0 0 C1.98 0.495 1.98 0.495 4 1 C2.625 3.5 2.625 3.5 1 6 C0.34 6 -0.32 6 -1 6 C-0.67 4.02 -0.34 2.04 0 0 Z " fill="#484848" transform="translate(90,188)"/>
</svg>
